<svg xmlns="http://www.w3.org/2000/svg" width="100" height="100" fill="#2563eb" viewBox="0 0 16 16">
  <path d="M8 0c-.69 0-1.843.265-2.928.56-1.11.3-2.229.655-2.887.87a1.54 1.54 0 0 0-1.044 1.262c-.596 4.477.787 7.795 2.465 9.99a11.8 11.8 0 0 0 2.517 2.453c.386.273.744.482 1.048.625.28.132.581.24.829.24s.548-.108.829-.24a7 7 0 0 0 1.048-.625 11.8 11.8 0 0 0 2.517-2.453c1.678-2.195 3.061-5.513 2.465-9.99a1.54 1.54 0 0 0-1.044-1.263 63 63 0 0 0-2.887-.87C9.843.266 8.69 0 8 0m0 1c.656 0 1.764.249 2.84.542.493.134 1.033.297 1.56.46.51.157.944.303 1.285.41a.54.54 0 0 1 .369.443c.543 4.084-.668 7.187-2.21 9.207a10.8 10.8 0 0 1-2.29 2.239c-.328.232-.641.413-.92.545-.24.113-.42.176-.634.176s-.394-.063-.634-.176a6 6 0 0 1-.92-.545 10.8 10.8 0 0 1-2.29-2.239c-1.542-2.02-2.753-5.123-2.21-9.207a.54.54 0 0 1 .369-.443c.341-.107.775-.253 1.285-.41.527-.163 1.067-.326 1.56-.46C6.236 1.25 7.344 1 8 1"/>
  <path d="M8 4a.5.5 0 0 1 .5.5V7H10a.5.5 0 0 1 0 1H8.5v2.5a.5.5 0 0 1-1 0V8H6a.5.5 0 0 1 0-1h1.5V4.5A.5.5 0 0 1 8 4"/>
</svg>